<svg xmlns="http://www.w3.org/2000/svg" viewBox="0 0 512 512">
  <defs>
    <linearGradient id="woodGrad" x1="0%" y1="0%" x2="0%" y2="100%">
      <stop offset="0%" style="stop-color:#C9A66B"/>
      <stop offset="100%" style="stop-color:#8B6914"/>
    </linearGradient>
    <linearGradient id="pinkGrad" x1="0%" y1="0%" x2="100%" y2="100%">
      <stop offset="0%" style="stop-color:#E8B4B8"/>
      <stop offset="100%" style="stop-color:#A28089"/>
    </linearGradient>
  </defs>
  
  <!-- 衣柜主体 -->
  <rect x="60" y="40" width="392" height="432" rx="20" fill="url(#woodGrad)"/>
  
  <!-- 衣柜内部背景 -->
  <rect x="80" y="60" width="352" height="392" rx="10" fill="#FDF6F0"/>
  
  <!-- 衣架杆 -->
  <rect x="100" y="100" width="312" height="8" rx="4" fill="#8B6914"/>
  
  <!-- 衣架和衣服 -->
  <!-- 衣架1 -->
  <path d="M160 100 L160 85 Q160 75 170 75 L190 75 Q200 75 200 85 L200 100" 
        fill="none" stroke="#8B6914" stroke-width="4" stroke-linecap="round"/>
  <ellipse cx="180" cy="160" rx="35" ry="50" fill="url(#pinkGrad)"/>
  
  <!-- 衣架2 -->
  <path d="M240 100 L240 85 Q240 75 250 75 L270 75 Q280 75 280 85 L280 100" 
        fill="none" stroke="#8B6914" stroke-width="4" stroke-linecap="round"/>
  <ellipse cx="260" cy="155" rx="30" ry="45" fill="#87CEEB"/>
  
  <!-- 衣架3 -->
  <path d="M320 100 L320 85 Q320 75 330 75 L350 75 Q360 75 360 85 L360 100" 
        fill="none" stroke="#8B6914" stroke-width="4" stroke-linecap="round"/>
  <ellipse cx="340" cy="160" rx="35" ry="50" fill="#FFB7C5"/>
  
  <!-- 层板 -->
  <rect x="100" y="250" width="312" height="6" rx="2" fill="#C9A66B"/>
  
  <!-- 叠放的衣物 -->
  <rect x="120" y="270" width="60" height="25" rx="5" fill="#98FB98"/>
  <rect x="120" y="300" width="60" height="25" rx="5" fill="#DDA0DD"/>
  <rect x="200" y="270" width="60" height="25" rx="5" fill="#F0E68C"/>
  <rect x="200" y="300" width="60" height="25" rx="5" fill="#FFA07A"/>
  
  <!-- 包包 -->
  <ellipse cx="340" cy="300" rx="40" ry="35" fill="#A28089"/>
  <rect x="320" y="270" width="40" height="8" rx="3" fill="#8B6914"/>
  
  <!-- 抽屉 -->
  <rect x="100" y="360" width="312" height="80" rx="5" fill="#B8956B"/>
  <rect x="220" y="390" width="72" height="12" rx="4" fill="#8B6914"/>
  
  <!-- 爱心装饰 -->
  <path d="M440 80 C440 70 450 60 460 60 C470 60 480 70 480 80 C480 100 460 110 460 110 C460 110 440 100 440 80Z" 
        fill="#E8B4B8"/>
</svg>
